# xmcd
#
# Track frame offsets: 
#        150
#        30939
#        59304
#        92239
#        185841
#
# Disc length: 2867 seconds
#
# Revision: 1
# Processed by: cddbd v1.5.2PL0 Copyright (c) Steve Scherf et al.
# Submitted via: ExactAudioCopy v1.0b3
#
DISCID=3b0b3105
DTITLE=Heaven And Hell - 2007-06-09 CD2
DYEAR=2007
DGENRE=Heavy Metal
TTITLE0=Falling Off The Edge Of The World
TTITLE1=Shadow Of The Wind
TTITLE2=Guitar Solo - Die Young
TTITLE3=Heaven and Hell
TTITLE4=Neon Knights
EXTD=
EXTT0=
EXTT1=
EXTT2=
EXTT3=
EXTT4=
PLAYORDER=
